<?xml version="1.0" encoding="UTF-8" standalone="no"?>
<svg
   xmlns:dc="http://purl.org/dc/elements/1.1/"
   xmlns:cc="http://creativecommons.org/ns#"
   xmlns:rdf="http://www.w3.org/1999/02/22-rdf-syntax-ns#"
   xmlns:svg="http://www.w3.org/2000/svg"
   xmlns="http://www.w3.org/2000/svg"
   id="svg8"
   version="1.1"
   viewBox="0 0 270.92998 270.93333"
   height="1023.9999"
   width="1023.9999">
  <defs
     id="defs2" />
  <metadata
     id="metadata5">
    <rdf:RDF>
      <cc:Work
         rdf:about="">
        <dc:format>image/svg+xml</dc:format>
        <dc:type
           rdf:resource="http://purl.org/dc/dcmitype/StillImage" />
        <dc:title></dc:title>
      </cc:Work>
    </rdf:RDF>
  </metadata>
  <g
     style="display:none"
     transform="translate(-0.00188,-26.06665)"
     id="layer1">
    <path
       id="path854"
       transform="matrix(0.26458333,0,0,0.26458333,0,26.06665)"
       d="M 0,0 V 544.94141 L 337.5293,739.8125 c 0,0 44.29982,24.56544 98.68945,27.83008 54.38959,3.26464 110.25651,-5.72943 163.58984,-98.10547 L 986.36914,0 Z"
       style="opacity:1;vector-effect:none;fill:#abff4f;fill-opacity:1;stroke:none;stroke-width:127.99999237;stroke-linecap:round;stroke-linejoin:round;stroke-miterlimit:4;stroke-dasharray:none;stroke-dashoffset:0;stroke-opacity:1;paint-order:normal" />
    <path
       id="rect842"
       transform="matrix(0.26458333,0,0,0.26458333,0,26.06665)"
       d="M 1024,190.81641 710.66211,733.53906 c -74.66668,129.32648 -193.65166,167.1867 -282.11328,161.87696 -88.46164,-5.30975 -155.01953,-44.75 -155.01953,-44.75 L 0,692.74219 V 1024 h 1024 z"
       style="opacity:1;vector-effect:none;fill:#29bf12;fill-opacity:1;stroke:none;stroke-width:127.99999237;stroke-linecap:round;stroke-linejoin:round;stroke-miterlimit:4;stroke-dasharray:none;stroke-dashoffset:0;stroke-opacity:1;paint-order:normal" />
  </g>
  <g
     style="display:inline"
     id="g860"
     transform="translate(-0.00188,-26.06665)">
    <path
       id="path856"
       transform="matrix(0.26458333,0,0,0.26458333,0,26.06665)"
       d="M 256,0 C 114.17599,0 0,114.17599 0,256 V 544.94141 L 337.5293,739.8125 c 0,0 44.29982,24.56544 98.68945,27.83008 54.38959,3.26464 110.25651,-5.72943 163.58984,-98.10547 L 945.3418,71.0625 C 899.40013,27.007872 836.97188,0 768,0 Z"
       style="opacity:1;vector-effect:none;fill:#abff4f;fill-opacity:1;stroke:none;stroke-width:127.99999237;stroke-linecap:round;stroke-linejoin:round;stroke-miterlimit:4;stroke-dasharray:none;stroke-dashoffset:0;stroke-opacity:1;paint-order:normal" />
    <path
       id="path858"
       transform="matrix(0.26458333,0,0,0.26458333,0,26.06665)"
       d="M 1018.1094,201.01758 710.66211,733.53906 c -74.66668,129.32648 -193.65166,167.1867 -282.11328,161.87696 -88.46164,-5.30975 -155.01953,-44.75 -155.01953,-44.75 L 0,692.74219 V 768 c 0,141.82401 114.17599,256 256,256 h 512 c 141.82401,0 256,-114.17599 256,-256 V 256 c 0,-18.88845 -2.0446,-37.27919 -5.8906,-54.98242 z"
       style="opacity:1;vector-effect:none;fill:#29bf12;fill-opacity:1;stroke:none;stroke-width:127.99999237;stroke-linecap:round;stroke-linejoin:round;stroke-miterlimit:4;stroke-dasharray:none;stroke-dashoffset:0;stroke-opacity:1;paint-order:normal" />
  </g>
  <g
     transform="translate(-0.00188)"
     style="display:none"
     id="layer2">
    <path
       style="fill:none;stroke:#000000;stroke-width:33.8666687;stroke-linecap:butt;stroke-linejoin:miter;stroke-miterlimit:4;stroke-dasharray:none;stroke-opacity:1"
       d="M -212.45539,41.073948 80.838552,210.40726 c 0,0 58.658788,33.86667 92.525448,-24.79212 l 194.73335,-337.28802"
       id="path825" />
  </g>
</svg>
